<svg width="25" height="25" viewBox="0 0 25 25" fill="none" xmlns="http://www.w3.org/2000/svg">
<path fill-rule="evenodd" clip-rule="evenodd" d="M12.5151 4.65173L13.4921 4.65873L14.0961 4.67073L14.6571 4.68873L15.1771 4.71173L15.6571 4.74173L16.3071 4.79373L16.6941 4.83373L16.8741 4.85573L17.2121 4.90373L17.5171 4.95473L17.7931 5.01073L18.0391 5.06973L18.2591 5.13173L18.4521 5.19773L18.6221 5.26573L18.7701 5.33773C18.8151 5.36173 18.8581 5.38573 18.8971 5.41073L19.0041 5.48673L19.0511 5.52573L19.1331 5.60473L19.1991 5.68473C19.2091 5.69873 19.2191 5.71173 19.2271 5.72573L19.2731 5.80873L19.2931 5.84973L19.3231 5.93373L19.3431 6.01873L19.3641 6.08073C19.3881 6.12973 19.4201 6.19373 19.4291 6.27373L19.4651 6.38973L19.6211 6.84773L19.8381 7.43373L20.0991 8.10573L20.3871 8.81773L20.5861 9.29373L22.3971 9.03473L22.6261 10.7667L22.3971 10.8127C22.2531 10.8427 22.1091 10.8617 21.9641 10.8777L21.5331 10.9227L21.7461 11.2487C22.1401 11.8787 22.5411 12.6857 22.6581 13.6907L22.6821 13.9697L22.7691 19.6517H21.0151V13.9847C21.0151 13.1977 20.6751 12.5737 20.1311 11.8147L19.8151 11.3847L19.7311 11.2987C19.7001 11.2627 19.6651 11.2197 19.6291 11.1667C17.4951 11.3807 15.1651 11.4847 12.5151 11.4847C9.87308 11.4847 7.55108 11.3817 5.42308 11.1687L5.36908 11.2877C5.34608 11.3277 5.31708 11.3697 5.27608 11.4107L4.96908 11.8177C4.43608 12.5397 4.07908 13.1477 4.02308 13.8687L4.01508 14.0687V19.6517H2.26508V13.9847C2.26508 12.6967 2.77708 11.7417 3.38908 10.9197L3.19908 10.8997C3.05408 10.8857 2.91008 10.8717 2.76608 10.8497L2.54908 10.8127L2.32008 10.7667L2.55108 9.03473L4.36308 9.29373L4.58908 8.75473L4.73608 8.38673L4.94408 7.84973L5.19408 7.17973L5.61108 5.98873C5.63308 5.94273 5.65708 5.89473 5.68608 5.84373L5.72408 5.78273L5.76908 5.71973L5.82208 5.65573L5.92208 5.55873L6.00508 5.49373L6.10208 5.42873L6.21508 5.36473L6.34508 5.30073L6.49508 5.23773L6.66708 5.17573L6.86008 5.11573L7.07808 5.05873L7.32208 5.00373L7.45408 4.97673L7.73908 4.92673L8.05508 4.87873L8.22508 4.85573L8.58808 4.81373L8.98608 4.77573L9.41908 4.74273L9.89008 4.71273L10.4001 4.68973L10.9501 4.67173L11.5431 4.65873L12.1801 4.65273L12.5151 4.65173ZM17.2651 17.4017C18.1311 17.4017 18.6221 17.9717 18.6771 18.5437L18.6821 18.6517V19.6517H16.9321V19.1517H8.01508V19.6517H6.26508V18.6517C6.26508 18.0657 6.65308 17.4747 7.51508 17.4077L7.68208 17.4017H17.2651ZM4.99708 13.6277L7.49208 13.7597L7.40108 15.5067L4.90408 15.3747L4.99708 13.6277ZM19.8671 13.5867L19.9601 15.3337L17.4631 15.4657L17.3701 13.7187L19.8671 13.5867ZM12.5081 6.48473C12.2821 6.47873 12.0631 6.47473 11.8511 6.47273H11.2341L10.6591 6.48373L10.1241 6.50373L9.63008 6.53173L9.39908 6.54773L8.76808 6.60373L8.40008 6.64573L8.07508 6.68973L7.66708 6.75673L7.35708 6.81873L7.20508 6.85573L6.88908 7.77673L6.69708 8.31973L6.47408 8.90673C6.39508 9.10673 6.31108 9.30973 6.22308 9.51173C10.4051 9.80973 14.5551 9.81073 18.8891 9.51073L18.7751 9.25273L18.5531 8.73673L18.3461 8.23373L18.2511 7.99373L18.0811 7.54773L17.9441 7.16173C17.9241 7.10373 17.9071 7.04873 17.8911 6.99773C17.8491 6.96473 17.8171 6.92173 17.7951 6.87373L17.6001 6.83073L17.3521 6.78673L17.2091 6.76473L16.8871 6.71973L16.5171 6.67673L15.8821 6.61673L15.4071 6.57973L14.8941 6.54873L14.3461 6.52173L13.7661 6.50173L13.1541 6.48873L12.5081 6.48473Z" fill="white"/>
</svg>
