<svg width="65" height="23" viewBox="0 0 65 23" fill="none" xmlns="http://www.w3.org/2000/svg">
<path fill-rule="evenodd" clip-rule="evenodd" d="M65 6.446H61.778V10.726H54.8V6.446H51.579V10.726H45.942C45.4448 10.7263 44.9678 10.5293 44.6155 10.1784C44.2633 9.8275 44.0646 9.35121 44.063 8.854V6.446H40.842V8.854C40.8407 9.35138 40.6421 9.82793 40.2898 10.1791C39.9376 10.5302 39.4604 10.7273 38.963 10.727C38.4656 10.7273 37.9884 10.5302 37.6362 10.1791C37.2839 9.82793 37.0853 9.35138 37.084 8.854V6.446H33.863V8.854C33.8617 9.35138 33.6631 9.82793 33.3108 10.1791C32.9586 10.5302 32.4814 10.7273 31.984 10.727H30.105V6.446H26.885V10.726H9.70502V13.938H13.463V14.473C13.463 17.129 11.296 19.289 8.63202 19.289C5.96802 19.289 3.80001 17.129 3.80001 14.473V10.727H0.580017V14.473C0.580017 18.899 4.19301 22.5 8.63301 22.5C13.073 22.5 16.685 18.9 16.685 14.473V13.938H31.985C33.2814 13.9388 34.5293 13.4449 35.474 12.557C36.4191 13.4447 37.6674 13.9383 38.964 13.937C40.2603 13.9381 41.5082 13.4445 42.453 12.557C43.3978 13.4446 44.6457 13.9382 45.942 13.937H65V6.446Z" fill="black"/>
<path fill-rule="evenodd" clip-rule="evenodd" d="M47.702 19.797H51.556V22.5H54.86V16.554H47.702V19.797ZM65 0.5H58.439V3.473H65V0.5Z" fill="black"/>
</svg>
