<svg width="21" height="17" viewBox="0 0 21 17" fill="none" xmlns="http://www.w3.org/2000/svg">
<path fill-rule="evenodd" clip-rule="evenodd" d="M0.517639 12.1517C0.517639 5.52431 5.89023 0.151733 12.5177 0.151733C16.9359 0.151733 20.5177 3.73345 20.5177 8.15173C20.5177 12.57 16.9359 16.1517 12.5177 16.1517H2.51764C1.41307 16.1517 0.517639 15.2563 0.517639 14.1517V12.1517ZM12.5177 14.1517H2.51764V12.1517C2.51764 11.8142 2.53436 11.4806 2.56702 11.1517H8.97068C10.9282 11.1517 12.5151 9.56483 12.5151 7.60733C12.5151 6.28643 11.7806 5.07513 10.6093 4.46448L8.12138 3.16742C9.44818 2.51694 10.9403 2.15173 12.5177 2.15173C15.8314 2.15173 18.5177 4.83802 18.5177 8.15173C18.5177 11.4654 15.8314 14.1517 12.5177 14.1517ZM2.97544 9.15173H8.97068C9.82368 9.15173 10.5151 8.46033 10.5151 7.60733C10.5151 7.03183 10.195 6.50403 9.68468 6.23793L6.18397 4.41283C4.69578 5.63224 3.56569 7.27243 2.97544 9.15173Z" fill="white"/>
</svg>
