<svg width="25" height="25" viewBox="0 0 25 25" fill="none" xmlns="http://www.w3.org/2000/svg">
<path fill-rule="evenodd" clip-rule="evenodd" d="M4.05908 7.65173C4.48208 7.65273 4.89708 7.71573 5.29508 7.87373C5.61208 7.99973 5.90408 8.17673 6.14108 8.43873L6.26108 8.57873L6.48808 8.87173C6.51808 8.90873 6.52108 8.94673 6.50608 8.99573C6.40208 9.32973 6.30108 9.66573 6.20008 9.99973L5.76408 11.4337L5.29408 12.9757C5.25408 13.1067 5.21708 13.2387 5.17408 13.3687C5.16608 13.3907 5.14208 13.4167 5.12108 13.4227C4.89408 13.4927 4.66108 13.5367 4.42608 13.5427C3.85808 13.5547 3.29108 13.5567 2.72308 13.5627C2.66708 13.5627 2.65508 13.5627 2.65308 13.6027V16.6517H0.515076V7.65173H4.05908ZM21.0751 7.65773C21.0901 7.68773 21.1011 7.70873 21.1091 7.73173L21.5961 9.00373C21.7331 9.36573 21.8681 9.72873 22.0061 10.0897L22.4281 11.1837L22.9731 12.6207L23.2981 13.4707L23.7981 14.7737C23.9441 15.1567 24.0881 15.5417 24.2361 15.9237C24.3271 16.1637 24.4221 16.4017 24.5151 16.6397V16.6497C23.6891 16.6497 22.8621 16.6497 22.0351 16.6517C21.9911 16.6517 21.9731 16.6377 21.9591 16.5967L21.4381 15.1567C21.3941 15.0367 21.3941 15.0367 21.2671 15.0367H18.1171C18.1431 14.9697 18.1651 14.9077 18.1901 14.8467L18.4991 14.0777L18.7981 13.3287C18.8121 13.2917 18.8381 13.2937 18.8681 13.2937H20.8381L20.7451 13.0437L20.3071 11.8277C20.1701 11.4477 20.0311 11.0697 19.8951 10.6897C19.8861 10.6647 19.8861 10.6297 19.8961 10.6037C20.0141 10.3007 20.1341 9.99773 20.2551 9.69673C20.4161 9.29273 20.5791 8.89073 20.7411 8.48673L21.0481 7.71873L21.0601 7.69173L21.0751 7.65773ZM17.2281 7.65173L19.6021 7.65273L19.6301 7.65673L19.4351 8.13073C19.3051 8.45373 19.1751 8.77773 19.0421 9.10073L18.4621 10.5127L17.8461 12.0157C17.6551 12.4857 17.4661 12.9557 17.2741 13.4257L16.7021 14.8167C16.5281 15.2437 16.3551 15.6717 16.1801 16.0987C16.1101 16.2707 16.0371 16.4407 15.9671 16.6127C15.9541 16.6437 15.9371 16.6507 15.9061 16.6507H13.5861C13.5541 16.6507 13.5391 16.6407 13.5291 16.6107C13.4001 16.1957 13.2701 15.7807 13.1391 15.3677L12.6641 13.8667L12.3511 12.8847C12.1991 12.4097 12.0461 11.9337 11.8831 11.4547L10.1521 16.6507H7.80908C7.76808 16.6507 7.74408 16.6407 7.72208 16.6037C7.49208 16.2117 7.25908 15.8207 7.02708 15.4297C6.86408 15.1537 6.70208 14.8777 6.53708 14.6027C6.51408 14.5627 6.50808 14.5257 6.52408 14.4797C6.64908 14.1067 6.77208 13.7317 6.89608 13.3577L7.21608 12.3847L7.71808 10.8637L7.73508 10.8237L9.08808 13.4667L9.20308 13.1197L9.51608 12.1737L9.90008 11.0037L10.3801 9.54973L10.8661 8.07973C10.9091 7.95073 10.9531 7.82173 10.9941 7.69173C11.0041 7.66373 11.0161 7.65173 11.0481 7.65173C11.6461 7.65273 12.2451 7.65373 12.8431 7.65173C12.8841 7.65173 12.8911 7.67273 12.9001 7.70173L13.2541 8.85773L13.5761 9.90473L13.8941 10.9417L14.1981 11.9257L14.6621 13.4297L14.6741 13.4617C14.7031 13.3997 14.7291 13.3467 14.7521 13.2917L15.2621 12.1117L15.7981 10.8697L16.3031 9.70373C16.4011 9.47773 16.4981 9.24973 16.5971 9.02373L16.9861 8.13373C17.0501 7.98773 17.1121 7.83973 17.1741 7.69373C17.1841 7.66773 17.1941 7.65173 17.2281 7.65173ZM2.71808 9.39773C2.66608 9.39773 2.65508 9.39773 2.65308 9.43473V11.8147L2.69508 11.8167C2.95608 11.8167 3.21708 11.8197 3.47808 11.8167C3.68808 11.8127 3.89708 11.7967 4.10108 11.7317C4.41608 11.6317 4.62708 11.4157 4.72108 11.0847C4.82108 10.7417 4.82608 10.3937 4.69508 10.0547C4.58708 9.77473 4.39708 9.58673 4.12708 9.49473C3.93208 9.42773 3.73008 9.40273 3.52708 9.39973C3.25708 9.39573 2.98708 9.39873 2.71808 9.39773Z" fill="black"/>
</svg>
